<svg width="516" height="412" viewBox="0 0 516 412" fill="none" xmlns="http://www.w3.org/2000/svg">
<path d="M437.391 231.531L280.172 337.688L370.203 411.594L437.391 231.531Z" fill="white"/>
<path d="M0 0.40625H90.0312L75.25 11.8281H19.4844L93.0023 252.152C95.1879 259.296 105.104 259.811 108.019 252.932L215 0.40625H299.656L358.788 177.801C361.121 184.801 370.881 185.179 373.749 178.38L448.812 0.40625H516L448.812 184.5L315.781 273.188L257.238 114.286C254.692 107.374 244.949 107.285 242.277 114.149L174.048 289.427C172.82 292.581 173.71 296.166 176.27 298.38L221.719 337.688L116.906 408.906L0 0.40625Z" fill="white"/>
</svg>
